<svg width="198" height="32" viewBox="0 0 198 32" fill="none" xmlns="http://www.w3.org/2000/svg">
<path fill-rule="evenodd" clip-rule="evenodd" d="M41.8529 26.1797H43.5215V28.6741H41.257C40.522 28.6741 39.9063 28.5355 39.4097 28.2584C38.9131 27.9812 38.5555 27.6249 38.3172 27.1695C38.0788 26.734 37.9596 26.2787 37.9596 25.8035V21.6264V19.3497V17.3502L41.1974 16.499V20.2208H43.5413V22.4974H41.2173V25.6056C41.1974 25.9817 41.4159 26.1797 41.8529 26.1797ZM33.3909 20.201H36.6287V28.6741H33.3909V20.201ZM33.3512 15.6279H36.6089V18.1025H33.3512V15.6279ZM29.5771 28.6741H26.3393V21.6264V19.3497V18.4985C26.3393 18.0233 26.4585 17.568 26.6969 17.1325C26.9352 16.6969 27.2928 16.3208 27.7894 16.0436C28.286 15.7665 28.9017 15.6279 29.6367 15.6279H32.0005V18.1223H30.2326C29.7956 18.1223 29.5771 18.3203 29.5771 18.7162V20.201H32.0005V22.4776H29.5771V28.6741ZM24.1742 27.5457C23.32 28.3771 22.1679 28.7929 20.7576 28.7929C19.3274 28.7929 18.1753 28.3771 17.341 27.5457C17.0431 27.2685 16.8246 26.9518 16.6458 26.6152C16.467 26.2787 16.3479 25.9025 16.2883 25.467C16.2088 25.0315 16.1889 24.4969 16.1889 23.8238C16.1889 23.1705 16.2287 22.6162 16.2883 22.1807C16.3677 21.7452 16.4869 21.369 16.6458 21.0325C16.8246 20.6959 17.0431 20.3792 17.341 20.102C17.7185 19.7457 18.1753 19.4487 18.7315 19.2111C19.2877 18.9736 19.9631 18.8548 20.7576 18.8548C21.5522 18.8548 22.2077 18.9736 22.7837 19.2111C23.3399 19.4487 23.8166 19.7457 24.194 20.102C24.631 20.5375 24.929 21.0325 25.1078 21.567C25.2667 22.1213 25.366 22.8538 25.366 23.804C25.366 24.7543 25.2865 25.5066 25.1078 26.0609C24.929 26.6152 24.6112 27.1101 24.1742 27.5457ZM22.009 22.5172C21.9494 22.2005 21.8302 21.9827 21.6316 21.8046C21.433 21.6264 21.1549 21.5274 20.7576 21.5274C20.3802 21.5274 20.0822 21.6264 19.8836 21.8046C19.685 21.9827 19.5658 22.2401 19.5062 22.5568C19.4466 22.8736 19.4069 23.3091 19.4069 23.8238C19.4069 24.3386 19.4466 24.7543 19.5062 25.0711C19.5658 25.3878 19.685 25.6452 19.8836 25.8233C20.0822 26.0015 20.3802 26.1005 20.7576 26.1005C21.135 26.1005 21.433 26.0015 21.6316 25.8233C21.8302 25.6452 21.9494 25.4076 22.009 25.1106C22.0686 24.8137 22.1083 24.3782 22.1083 23.804C22.0885 23.2497 22.0686 22.8142 22.009 22.5172ZM13.8848 21.369C13.4478 21.369 13.2292 21.567 13.2292 21.9629V28.6741H9.99146V22.5964V21.7452C9.99146 21.27 10.1106 20.8147 10.349 20.3792C10.5874 19.9436 10.9449 19.5675 11.4415 19.2903C11.9381 19.0132 12.5539 18.8746 13.2888 18.8746H16.1492L15.5136 21.369H13.8848ZM8.18386 27.2091C7.03176 28.4761 5.14471 28.7731 3.23779 28.6543V32H0C0 32 0 19.5081 0 18.8944C2.64188 18.8746 4.62825 18.8746 5.60157 18.8746C6.67422 18.8746 7.52836 19.1716 8.18386 19.7457C8.601 20.1416 8.87909 20.6167 8.99827 21.2106C9.11746 21.8046 9.17705 22.5172 9.17705 23.3883V23.8436V24.299C9.17705 25.17 9.11746 25.2096 8.99827 25.7837C8.87909 26.3381 8.56127 26.7934 8.18386 27.2091ZM4.96593 21.2106C4.5488 21.2106 3.85356 21.2304 3.41656 21.2304L3.21793 21.3096V26.2985C3.21793 26.2985 3.53575 26.3183 4.46934 26.3183C5.14471 26.3183 5.60157 25.9619 5.83994 25.566C6.0783 25.17 6.21735 24.4375 6.21735 23.4873C6.21735 21.9035 5.95912 21.2106 4.96593 21.2106Z" fill="white"/>
<path d="M49.1032 21.4482C49.3415 21.3096 49.6395 21.2305 49.997 21.2305C50.3546 21.2305 50.6525 21.3096 50.8909 21.4482C51.1293 21.5868 51.308 21.765 51.4074 21.9827C51.5265 22.2005 51.5861 22.4579 51.5861 22.735H48.4278C48.4278 22.4381 48.4874 22.2005 48.6066 21.9827C48.7059 21.7848 48.8648 21.5868 49.1032 21.4482Z" fill="white"/>
<path d="M59.3131 25.3284L54.5061 30.1589C54.2677 30.3766 53.9499 30.5152 53.6122 30.5152C53.2746 30.5152 52.9567 30.3766 52.7382 30.1589L51.2683 28.6939C51.8046 28.6345 52.2615 28.5355 52.6588 28.3771C53.2547 28.1396 53.8506 27.7436 54.4465 27.2091L52.4999 25.4472C52.182 25.7244 51.8841 25.9223 51.5861 26.0609C51.2882 26.1797 50.8512 26.2589 50.3149 26.2589C49.7388 26.2589 49.2819 26.1203 48.9443 25.8233C48.6066 25.5264 48.4477 25.17 48.4477 24.7543H54.8041V23.4279C54.8041 22.5568 54.6253 21.765 54.2479 21.0721C53.8705 20.3792 53.3341 19.8249 52.5992 19.4289C51.8841 19.0132 51.0101 18.8152 50.0169 18.8152C48.6066 18.8152 47.4545 19.2507 46.5805 20.1218C45.925 20.7751 45.5277 21.6066 45.3489 22.636C45.0311 22.1411 44.8325 21.4878 44.8325 20.9731V16.8949C44.8325 16.202 45.4085 15.6279 46.0839 15.6279H50.1559C50.8512 15.6279 51.8046 16.0238 52.3012 16.5188L59.3131 23.5269C59.5316 23.7645 59.6707 24.0812 59.6707 24.4178C59.6707 24.7741 59.5316 25.0908 59.3131 25.3284Z" fill="white"/>
<path d="M59.3131 25.3284L54.5061 30.1589C54.2677 30.3766 53.9499 30.5152 53.6122 30.5152C53.2746 30.5152 52.9567 30.3766 52.7382 30.1589L51.2683 28.6939C51.8046 28.6345 52.2615 28.5355 52.6588 28.3771C53.2547 28.1396 53.8506 27.7436 54.4465 27.2091L52.4999 25.4472C52.182 25.7244 51.8841 25.9223 51.5861 26.0609C51.2882 26.1797 50.8512 26.2589 50.3149 26.2589C49.7388 26.2589 49.2819 26.1203 48.9443 25.8233C48.6066 25.5264 48.4477 25.17 48.4477 24.7543H54.8041V23.4279C54.8041 22.5568 54.6253 21.765 54.2479 21.0721C53.8705 20.3792 53.3341 19.8249 52.5992 19.4289C51.8841 19.0132 51.0101 18.8152 50.0169 18.8152C48.6066 18.8152 47.4545 19.2507 46.5805 20.1218C45.925 20.7751 45.5277 21.6066 45.3489 22.636C45.0311 22.1411 44.8325 21.4878 44.8325 20.9731V16.8949C44.8325 16.202 45.4085 15.6279 46.0839 15.6279H50.1559C50.8512 15.6279 51.8046 16.0238 52.3012 16.5188L59.3131 23.5269C59.5316 23.7645 59.6707 24.0812 59.6707 24.4178C59.6707 24.7741 59.5316 25.0908 59.3131 25.3284Z" fill="white"/>
<path d="M3.84 9.15002C3.35333 9.15002 2.91 9.07002 2.51 8.91002C2.11 8.75002 1.76667 8.51668 1.48 8.21002C1.19333 7.90335 0.97 7.52668 0.81 7.08002C0.656667 6.62668 0.58 6.11002 0.58 5.53002C0.58 4.95002 0.666667 4.43668 0.84 3.99002C1.02 3.53668 1.26 3.15668 1.56 2.85002C1.86 2.54335 2.21 2.31001 2.61 2.15002C3.01 1.99002 3.43667 1.91002 3.89 1.91002C4.17667 1.91002 4.43333 1.93002 4.66 1.97002C4.89333 2.01002 5.09333 2.05668 5.26 2.11002C5.43333 2.16335 5.57333 2.21668 5.68 2.27002C5.78667 2.32335 5.86 2.36335 5.9 2.39002L5.62 3.19002C5.56 3.15002 5.47333 3.10668 5.36 3.06002C5.24667 3.01335 5.11667 2.96668 4.97 2.92002C4.83 2.87335 4.67333 2.83668 4.5 2.81002C4.33333 2.77668 4.16333 2.76002 3.99 2.76002C3.62333 2.76002 3.29333 2.82335 3 2.95002C2.70667 3.07668 2.45667 3.26002 2.25 3.50002C2.04333 3.74002 1.88333 4.03335 1.77 4.38002C1.66333 4.72002 1.61 5.10335 1.61 5.53002C1.61 5.94335 1.65667 6.32002 1.75 6.66002C1.85 7.00002 1.99667 7.29335 2.19 7.54002C2.38333 7.78002 2.62333 7.96668 2.91 8.10002C3.20333 8.23335 3.54333 8.30002 3.93 8.30002C4.37667 8.30002 4.74667 8.25335 5.04 8.16002C5.33333 8.06668 5.55333 7.98335 5.7 7.91002L5.95 8.71002C5.90333 8.74335 5.82 8.78668 5.7 8.84002C5.58 8.88668 5.43 8.93335 5.25 8.98002C5.07 9.02668 4.86 9.06668 4.62 9.10002C4.38 9.13335 4.12 9.15002 3.84 9.15002ZM8.92117 3.69002C9.00117 3.69002 9.09117 3.69668 9.19117 3.71002C9.29784 3.71668 9.40117 3.73002 9.50117 3.75002C9.60117 3.76335 9.69117 3.78002 9.77117 3.80002C9.85784 3.81335 9.92117 3.82668 9.96117 3.84002L9.80117 4.65002C9.72784 4.62335 9.60451 4.59335 9.43117 4.56002C9.26451 4.52002 9.04784 4.50002 8.78117 4.50002C8.60784 4.50002 8.43451 4.52002 8.26117 4.56002C8.09451 4.59335 7.98451 4.61668 7.93117 4.63002V9.00002H7.00117V4.02002C7.22117 3.94002 7.49451 3.86668 7.82117 3.80002C8.14784 3.72668 8.51451 3.69002 8.92117 3.69002ZM10.5686 6.41002C10.5686 5.95002 10.6353 5.55002 10.7686 5.21002C10.9019 4.86335 11.0786 4.57668 11.2986 4.35002C11.5186 4.12335 11.7719 3.95335 12.0586 3.84002C12.3453 3.72668 12.6386 3.67002 12.9386 3.67002C13.6386 3.67002 14.1753 3.89002 14.5486 4.33002C14.9219 4.76335 15.1086 5.42668 15.1086 6.32002C15.1086 6.36002 15.1086 6.41335 15.1086 6.48002C15.1086 6.54002 15.1053 6.59668 15.0986 6.65002H11.5386C11.5786 7.19002 11.7353 7.60002 12.0086 7.88002C12.2819 8.16002 12.7086 8.30002 13.2886 8.30002C13.6153 8.30002 13.8886 8.27335 14.1086 8.22002C14.3353 8.16002 14.5053 8.10335 14.6186 8.05002L14.7486 8.83002C14.6353 8.89002 14.4353 8.95335 14.1486 9.02002C13.8686 9.08668 13.5486 9.12002 13.1886 9.12002C12.7353 9.12002 12.3419 9.05335 12.0086 8.92002C11.6819 8.78002 11.4119 8.59002 11.1986 8.35002C10.9853 8.11002 10.8253 7.82668 10.7186 7.50002C10.6186 7.16668 10.5686 6.80335 10.5686 6.41002ZM14.1386 5.90002C14.1453 5.48002 14.0386 5.13668 13.8186 4.87002C13.6053 4.59668 13.3086 4.46002 12.9286 4.46002C12.7153 4.46002 12.5253 4.50335 12.3586 4.59002C12.1986 4.67002 12.0619 4.77668 11.9486 4.91002C11.8353 5.04335 11.7453 5.19668 11.6786 5.37002C11.6186 5.54335 11.5786 5.72002 11.5586 5.90002H14.1386ZM18.2045 8.33002C18.4245 8.33002 18.6179 8.32668 18.7845 8.32002C18.9579 8.30668 19.1012 8.28668 19.2145 8.26002V6.71002C19.1479 6.67668 19.0379 6.65002 18.8845 6.63002C18.7379 6.60335 18.5579 6.59002 18.3445 6.59002C18.2045 6.59002 18.0545 6.60002 17.8945 6.62002C17.7412 6.64002 17.5979 6.68335 17.4645 6.75002C17.3379 6.81002 17.2312 6.89668 17.1445 7.01002C17.0579 7.11668 17.0145 7.26002 17.0145 7.44002C17.0145 7.77335 17.1212 8.00668 17.3345 8.14002C17.5479 8.26668 17.8379 8.33002 18.2045 8.33002ZM18.1245 3.67002C18.4979 3.67002 18.8112 3.72002 19.0645 3.82002C19.3245 3.91335 19.5312 4.05002 19.6845 4.23002C19.8445 4.40335 19.9579 4.61335 20.0245 4.86002C20.0912 5.10002 20.1245 5.36668 20.1245 5.66002V8.91002C20.0445 8.92335 19.9312 8.94335 19.7845 8.97002C19.6445 8.99002 19.4845 9.01002 19.3045 9.03002C19.1245 9.05002 18.9279 9.06668 18.7145 9.08002C18.5079 9.10002 18.3012 9.11002 18.0945 9.11002C17.8012 9.11002 17.5312 9.08002 17.2845 9.02002C17.0379 8.96002 16.8245 8.86668 16.6445 8.74002C16.4645 8.60668 16.3245 8.43335 16.2245 8.22002C16.1245 8.00668 16.0745 7.75002 16.0745 7.45002C16.0745 7.16335 16.1312 6.91668 16.2445 6.71002C16.3645 6.50335 16.5245 6.33668 16.7245 6.21002C16.9245 6.08335 17.1579 5.99002 17.4245 5.93002C17.6912 5.87002 17.9712 5.84002 18.2645 5.84002C18.3579 5.84002 18.4545 5.84668 18.5545 5.86002C18.6545 5.86668 18.7479 5.88002 18.8345 5.90002C18.9279 5.91335 19.0079 5.92668 19.0745 5.94002C19.1412 5.95335 19.1879 5.96335 19.2145 5.97002V5.71002C19.2145 5.55668 19.1979 5.40668 19.1645 5.26002C19.1312 5.10668 19.0712 4.97335 18.9845 4.86002C18.8979 4.74002 18.7779 4.64668 18.6245 4.58002C18.4779 4.50668 18.2845 4.47002 18.0445 4.47002C17.7379 4.47002 17.4679 4.49335 17.2345 4.54002C17.0079 4.58002 16.8379 4.62335 16.7245 4.67002L16.6145 3.90002C16.7345 3.84668 16.9345 3.79668 17.2145 3.75002C17.4945 3.69668 17.7979 3.67002 18.1245 3.67002ZM22.5391 3.80002H24.5091V4.58002H22.5391V6.98002C22.5391 7.24002 22.5591 7.45668 22.5991 7.63002C22.6391 7.79668 22.6991 7.93002 22.7791 8.03002C22.8591 8.12335 22.9591 8.19002 23.0791 8.23002C23.1991 8.27002 23.3391 8.29002 23.4991 8.29002C23.7791 8.29002 24.0025 8.26002 24.1691 8.20002C24.3425 8.13335 24.4625 8.08668 24.5291 8.06002L24.7091 8.83002C24.6158 8.87668 24.4525 8.93335 24.2191 9.00002C23.9858 9.07335 23.7191 9.11002 23.4191 9.11002C23.0658 9.11002 22.7725 9.06668 22.5391 8.98002C22.3125 8.88668 22.1291 8.75002 21.9891 8.57002C21.8491 8.39002 21.7491 8.17002 21.6891 7.91002C21.6358 7.64335 21.6091 7.33668 21.6091 6.99002V2.35002L22.5391 2.19002V3.80002ZM25.3049 6.41002C25.3049 5.95002 25.3716 5.55002 25.5049 5.21002C25.6383 4.86335 25.8149 4.57668 26.0349 4.35002C26.2549 4.12335 26.5083 3.95335 26.7949 3.84002C27.0816 3.72668 27.3749 3.67002 27.6749 3.67002C28.3749 3.67002 28.9116 3.89002 29.2849 4.33002C29.6583 4.76335 29.8449 5.42668 29.8449 6.32002C29.8449 6.36002 29.8449 6.41335 29.8449 6.48002C29.8449 6.54002 29.8416 6.59668 29.8349 6.65002H26.2749C26.3149 7.19002 26.4716 7.60002 26.7449 7.88002C27.0183 8.16002 27.4449 8.30002 28.0249 8.30002C28.3516 8.30002 28.6249 8.27335 28.8449 8.22002C29.0716 8.16002 29.2416 8.10335 29.3549 8.05002L29.4849 8.83002C29.3716 8.89002 29.1716 8.95335 28.8849 9.02002C28.6049 9.08668 28.2849 9.12002 27.9249 9.12002C27.4716 9.12002 27.0783 9.05335 26.7449 8.92002C26.4183 8.78002 26.1483 8.59002 25.9349 8.35002C25.7216 8.11002 25.5616 7.82668 25.4549 7.50002C25.3549 7.16668 25.3049 6.80335 25.3049 6.41002ZM28.8749 5.90002C28.8816 5.48002 28.7749 5.13668 28.5549 4.87002C28.3416 4.59668 28.0449 4.46002 27.6649 4.46002C27.4516 4.46002 27.2616 4.50335 27.0949 4.59002C26.9349 4.67002 26.7983 4.77668 26.6849 4.91002C26.5716 5.04335 26.4816 5.19668 26.4149 5.37002C26.3549 5.54335 26.3149 5.72002 26.2949 5.90002H28.8749ZM34.5409 4.90002C34.4275 4.80668 34.2642 4.71668 34.0509 4.63002C33.8375 4.54335 33.6042 4.50002 33.3509 4.50002C33.0842 4.50002 32.8542 4.55002 32.6609 4.65002C32.4742 4.74335 32.3209 4.87668 32.2009 5.05002C32.0809 5.21668 31.9942 5.41668 31.9409 5.65002C31.8875 5.88335 31.8609 6.13335 31.8609 6.40002C31.8609 7.00668 32.0109 7.47668 32.3109 7.81002C32.6109 8.13668 33.0109 8.30002 33.5109 8.30002C33.7642 8.30002 33.9742 8.29002 34.1409 8.27002C34.3142 8.24335 34.4475 8.21668 34.5409 8.19002V4.90002ZM34.5409 1.40002L35.4709 1.24002V8.85002C35.2575 8.91002 34.9842 8.97002 34.6509 9.03002C34.3175 9.09002 33.9342 9.12002 33.5009 9.12002C33.1009 9.12002 32.7409 9.05668 32.4209 8.93002C32.1009 8.80335 31.8275 8.62335 31.6009 8.39002C31.3742 8.15668 31.1975 7.87335 31.0709 7.54002C30.9509 7.20002 30.8909 6.82002 30.8909 6.40002C30.8909 6.00002 30.9409 5.63335 31.0409 5.30002C31.1475 4.96668 31.3009 4.68002 31.5009 4.44002C31.7009 4.20002 31.9442 4.01335 32.2309 3.88002C32.5242 3.74668 32.8575 3.68002 33.2309 3.68002C33.5309 3.68002 33.7942 3.72002 34.0209 3.80002C34.2542 3.88002 34.4275 3.95668 34.5409 4.03002V1.40002ZM40.314 4.03002C40.4273 3.95668 40.5973 3.88002 40.824 3.80002C41.0573 3.72002 41.324 3.68002 41.624 3.68002C41.9973 3.68002 42.3273 3.74668 42.614 3.88002C42.9073 4.01335 43.154 4.20002 43.354 4.44002C43.554 4.68002 43.704 4.96668 43.804 5.30002C43.9107 5.63335 43.964 6.00002 43.964 6.40002C43.964 6.82002 43.9007 7.20002 43.774 7.54002C43.654 7.87335 43.4807 8.15668 43.254 8.39002C43.0273 8.62335 42.754 8.80335 42.434 8.93002C42.114 9.05668 41.754 9.12002 41.354 9.12002C40.9207 9.12002 40.5373 9.09002 40.204 9.03002C39.8707 8.97002 39.5973 8.91002 39.384 8.85002V1.40002L40.314 1.24002V4.03002ZM40.314 8.19002C40.4073 8.21668 40.5373 8.24335 40.704 8.27002C40.8773 8.29002 41.0907 8.30002 41.344 8.30002C41.844 8.30002 42.244 8.13668 42.544 7.81002C42.844 7.47668 42.994 7.00668 42.994 6.40002C42.994 6.13335 42.9673 5.88335 42.914 5.65002C42.8607 5.41668 42.774 5.21668 42.654 5.05002C42.534 4.87668 42.3773 4.74335 42.184 4.65002C41.9973 4.55002 41.7707 4.50002 41.504 4.50002C41.2507 4.50002 41.0173 4.54335 40.804 4.63002C40.5907 4.71668 40.4273 4.80668 40.314 4.90002V8.19002ZM44.5357 9.97002C44.609 10.0033 44.7024 10.0333 44.8157 10.06C44.9357 10.0933 45.0524 10.11 45.1657 10.11C45.5324 10.11 45.819 10.0267 46.0257 9.86002C46.2324 9.70002 46.419 9.43668 46.5857 9.07002C46.1657 8.27002 45.7724 7.42335 45.4057 6.53002C45.0457 5.63002 44.7457 4.72002 44.5057 3.80002H45.5057C45.579 4.10002 45.6657 4.42335 45.7657 4.77002C45.8724 5.11668 45.989 5.47335 46.1157 5.84002C46.2424 6.20668 46.379 6.57335 46.5257 6.94002C46.6724 7.30668 46.8257 7.66002 46.9857 8.00002C47.239 7.30002 47.459 6.60668 47.6457 5.92002C47.8324 5.23335 48.009 4.52668 48.1757 3.80002H49.1357C48.8957 4.78002 48.629 5.72335 48.3357 6.63002C48.0424 7.53002 47.7257 8.37335 47.3857 9.16002C47.2524 9.46002 47.1124 9.71668 46.9657 9.93002C46.8257 10.15 46.669 10.33 46.4957 10.47C46.3224 10.61 46.1257 10.7133 45.9057 10.78C45.6924 10.8467 45.449 10.88 45.1757 10.88C45.1024 10.88 45.0257 10.8733 44.9457 10.86C44.8657 10.8533 44.7857 10.84 44.7057 10.82C44.6324 10.8067 44.5624 10.79 44.4957 10.77C44.4357 10.75 44.3924 10.7333 44.3657 10.72L44.5357 9.97002Z" fill="white"/>
<path d="M179.067 21.2925H177.338V27.1386C177.338 27.2481 177.242 27.3418 177.131 27.3418H175.799C175.688 27.3418 175.592 27.2481 175.592 27.1386V21.2925H173.847C173.8 21.2925 173.736 21.2769 173.704 21.2456C173.673 21.2144 173.641 21.1675 173.641 21.105V20.0733C173.641 20.0264 173.657 19.9639 173.704 19.9326C173.736 19.9013 173.8 19.8701 173.847 19.8857H179.067C179.178 19.8857 179.273 19.9639 179.273 20.0733V21.105C179.273 21.2144 179.178 21.2925 179.067 21.2925Z" fill="white"/>
<path d="M184.62 27.295C183.938 27.3887 183.239 27.4356 182.557 27.42C181.24 27.42 180.082 27.0918 180.082 25.2629V21.9334C180.082 20.1046 181.256 19.7919 182.573 19.7919C183.255 19.7763 183.938 19.8232 184.62 19.917C184.763 19.9326 184.826 19.9951 184.826 20.1202V21.0581C184.826 21.1675 184.731 21.2613 184.62 21.2613H182.478C182.002 21.2613 181.827 21.4176 181.827 21.9491V22.8557H184.54C184.651 22.8557 184.747 22.9495 184.747 23.0589V24.0124C184.747 24.1218 184.651 24.2156 184.54 24.2156H181.827V25.2785C181.827 25.7944 182.002 25.9663 182.478 25.9663H184.62C184.731 25.9663 184.826 26.0601 184.826 26.1695V27.1074C184.826 27.2168 184.763 27.2793 184.62 27.295Z" fill="white"/>
<path d="M192.299 27.3419H190.68C190.569 27.3575 190.458 27.295 190.411 27.1855L188.999 24.9972L187.729 27.1386C187.666 27.2637 187.587 27.3419 187.475 27.3419H185.968C185.937 27.3419 185.889 27.3419 185.857 27.3106C185.825 27.2793 185.81 27.2481 185.81 27.2012C185.81 27.1699 185.825 27.1543 185.825 27.1386L188.031 23.5122L185.794 20.0733C185.778 20.0577 185.778 20.0264 185.778 20.0108C185.778 19.9326 185.857 19.8701 185.937 19.8857H187.602C187.713 19.8857 187.793 19.9795 187.856 20.0733L189.157 22.1054L190.426 20.0733C190.474 19.9639 190.569 19.9014 190.68 19.8857H192.187C192.267 19.8857 192.346 19.9326 192.346 20.0108C192.346 20.0264 192.33 20.0577 192.33 20.0733L190.109 23.5434L192.425 27.1386C192.441 27.1699 192.457 27.2012 192.457 27.2324C192.441 27.295 192.394 27.3419 192.299 27.3419Z" fill="white"/>
<path d="M171.198 19.9014C171.118 19.9014 171.055 19.9483 171.039 20.0264L169.564 25.4192C169.548 25.5286 169.516 25.5755 169.421 25.5755C169.326 25.5755 169.294 25.5286 169.278 25.4192L167.803 20.0264C167.787 19.9483 167.723 19.9014 167.644 19.9014H166.184C166.137 19.9014 166.089 19.917 166.057 19.9639C166.026 19.9951 166.01 20.042 166.026 20.0889C166.026 20.0889 167.834 26.2789 167.85 26.3415C168.088 27.0761 168.675 27.4356 169.421 27.4356C170.135 27.4669 170.785 27.0136 170.991 26.3415C171.023 26.2633 172.784 20.0889 172.784 20.0889C172.8 20.042 172.784 19.9951 172.752 19.9639C172.721 19.9326 172.673 19.9014 172.626 19.9014H171.198Z" fill="white"/>
<path d="M162.948 14.8837H147.765C147.209 14.8837 146.702 15.1807 146.432 15.634C146.146 16.1029 146.131 16.6813 146.384 17.1502L147.907 19.9951H145.147C144.798 19.9951 144.465 20.1671 144.274 20.4641C144.084 20.7611 144.084 21.1362 144.243 21.4488L149.129 30.5463C149.304 30.8745 149.653 31.0777 150.018 31.0777C150.382 31.0777 150.732 30.8745 150.906 30.5463L152.239 28.0765L153.905 31.1871C154.174 31.6873 154.714 32 155.285 32C155.856 32 156.395 31.6873 156.665 31.1871L164.28 17.0721C164.534 16.6031 164.518 16.0404 164.233 15.6027C163.979 15.1494 163.487 14.8837 162.948 14.8837ZM156.157 20.8392L152.826 26.998C152.715 27.2168 152.493 27.3418 152.239 27.3418C151.985 27.3418 151.763 27.2012 151.652 26.998L148.368 20.9017C148.272 20.7142 148.272 20.4953 148.383 20.3078C148.495 20.1202 148.701 20.0108 148.907 20.0108H155.634C155.84 20.0108 156.031 20.1046 156.126 20.2765C156.253 20.4484 156.253 20.6673 156.157 20.8392Z" fill="white"/>
<path d="M146.7 2C147.673 2 148.42 2.18667 148.94 2.56C149.467 2.92667 149.73 3.47667 149.73 4.21C149.73 4.61 149.657 4.95333 149.51 5.24C149.37 5.52 149.163 5.75 148.89 5.93C148.623 6.10333 148.297 6.23 147.91 6.31C147.523 6.39 147.087 6.43 146.6 6.43H145.83V9H144.86V2.17C145.133 2.10333 145.437 2.06 145.77 2.04C146.11 2.01333 146.42 2 146.7 2ZM146.78 2.85C146.367 2.85 146.05 2.86 145.83 2.88V5.6H146.56C146.893 5.6 147.193 5.58 147.46 5.54C147.727 5.49333 147.95 5.42 148.13 5.32C148.317 5.21333 148.46 5.07 148.56 4.89C148.66 4.71 148.71 4.48 148.71 4.2C148.71 3.93333 148.657 3.71333 148.55 3.54C148.45 3.36667 148.31 3.23 148.13 3.13C147.957 3.02333 147.753 2.95 147.52 2.91C147.287 2.87 147.04 2.85 146.78 2.85ZM155.259 6.4C155.259 6.81333 155.199 7.18667 155.079 7.52C154.959 7.85333 154.789 8.14 154.569 8.38C154.356 8.62 154.099 8.80667 153.799 8.94C153.499 9.06667 153.172 9.13 152.819 9.13C152.466 9.13 152.139 9.06667 151.839 8.94C151.539 8.80667 151.279 8.62 151.059 8.38C150.846 8.14 150.679 7.85333 150.559 7.52C150.439 7.18667 150.379 6.81333 150.379 6.4C150.379 5.99333 150.439 5.62333 150.559 5.29C150.679 4.95 150.846 4.66 151.059 4.42C151.279 4.18 151.539 3.99667 151.839 3.87C152.139 3.73667 152.466 3.67 152.819 3.67C153.172 3.67 153.499 3.73667 153.799 3.87C154.099 3.99667 154.356 4.18 154.569 4.42C154.789 4.66 154.959 4.95 155.079 5.29C155.199 5.62333 155.259 5.99333 155.259 6.4ZM154.289 6.4C154.289 5.81333 154.156 5.35 153.889 5.01C153.629 4.66333 153.272 4.49 152.819 4.49C152.366 4.49 152.006 4.66333 151.739 5.01C151.479 5.35 151.349 5.81333 151.349 6.4C151.349 6.98667 151.479 7.45333 151.739 7.8C152.006 8.14 152.366 8.31 152.819 8.31C153.272 8.31 153.629 8.14 153.889 7.8C154.156 7.45333 154.289 6.98667 154.289 6.4ZM160.691 9C160.504 8.52 160.304 7.97333 160.091 7.36C159.884 6.74 159.694 6.09667 159.521 5.43C159.347 6.09667 159.157 6.74 158.951 7.36C158.744 7.97333 158.547 8.52 158.361 9H157.551C157.244 8.31333 156.944 7.53 156.651 6.65C156.357 5.77 156.081 4.82 155.821 3.8H156.821C156.887 4.11333 156.967 4.45333 157.061 4.82C157.154 5.18667 157.251 5.55333 157.351 5.92C157.457 6.28667 157.567 6.64 157.681 6.98C157.794 7.32 157.901 7.61667 158.001 7.87C158.114 7.55667 158.224 7.22667 158.331 6.88C158.444 6.52667 158.551 6.17333 158.651 5.82C158.751 5.46 158.844 5.11 158.931 4.77C159.024 4.42333 159.104 4.1 159.171 3.8H159.941C160.001 4.1 160.074 4.42333 160.161 4.77C160.247 5.11 160.341 5.46 160.441 5.82C160.541 6.17333 160.644 6.52667 160.751 6.88C160.864 7.22667 160.977 7.55667 161.091 7.87C161.191 7.61667 161.294 7.32 161.401 6.98C161.514 6.64 161.624 6.28667 161.731 5.92C161.837 5.55333 161.937 5.18667 162.031 4.82C162.124 4.45333 162.204 4.11333 162.271 3.8H163.231C162.971 4.82 162.694 5.77 162.401 6.65C162.107 7.53 161.807 8.31333 161.501 9H160.691ZM163.924 6.41C163.924 5.95 163.991 5.55 164.124 5.21C164.257 4.86333 164.434 4.57667 164.654 4.35C164.874 4.12333 165.127 3.95333 165.414 3.84C165.701 3.72667 165.994 3.67 166.294 3.67C166.994 3.67 167.531 3.89 167.904 4.33C168.277 4.76333 168.464 5.42667 168.464 6.32C168.464 6.36 168.464 6.41333 168.464 6.48C168.464 6.54 168.461 6.59667 168.454 6.65H164.894C164.934 7.19 165.091 7.6 165.364 7.88C165.637 8.16 166.064 8.3 166.644 8.3C166.971 8.3 167.244 8.27333 167.464 8.22C167.691 8.16 167.861 8.10333 167.974 8.05L168.104 8.83C167.991 8.89 167.791 8.95333 167.504 9.02C167.224 9.08667 166.904 9.12 166.544 9.12C166.091 9.12 165.697 9.05333 165.364 8.92C165.037 8.78 164.767 8.59 164.554 8.35C164.341 8.11 164.181 7.82667 164.074 7.5C163.974 7.16667 163.924 6.80333 163.924 6.41ZM167.494 5.9C167.501 5.48 167.394 5.13667 167.174 4.87C166.961 4.59667 166.664 4.46 166.284 4.46C166.071 4.46 165.881 4.50333 165.714 4.59C165.554 4.67 165.417 4.77667 165.304 4.91C165.191 5.04333 165.101 5.19667 165.034 5.37C164.974 5.54333 164.934 5.72 164.914 5.9H167.494ZM171.72 3.69C171.8 3.69 171.89 3.69667 171.99 3.71C172.097 3.71667 172.2 3.73 172.3 3.75C172.4 3.76333 172.49 3.78 172.57 3.8C172.657 3.81333 172.72 3.82667 172.76 3.84L172.6 4.65C172.527 4.62333 172.403 4.59333 172.23 4.56C172.063 4.52 171.847 4.5 171.58 4.5C171.407 4.5 171.233 4.52 171.06 4.56C170.893 4.59333 170.783 4.61667 170.73 4.63V9H169.8V4.02C170.02 3.94 170.293 3.86667 170.62 3.8C170.947 3.72667 171.313 3.69 171.72 3.69ZM173.367 6.41C173.367 5.95 173.434 5.55 173.567 5.21C173.701 4.86333 173.877 4.57667 174.097 4.35C174.317 4.12333 174.571 3.95333 174.857 3.84C175.144 3.72667 175.437 3.67 175.737 3.67C176.437 3.67 176.974 3.89 177.347 4.33C177.721 4.76333 177.907 5.42667 177.907 6.32C177.907 6.36 177.907 6.41333 177.907 6.48C177.907 6.54 177.904 6.59667 177.897 6.65H174.337C174.377 7.19 174.534 7.6 174.807 7.88C175.081 8.16 175.507 8.3 176.087 8.3C176.414 8.3 176.687 8.27333 176.907 8.22C177.134 8.16 177.304 8.10333 177.417 8.05L177.547 8.83C177.434 8.89 177.234 8.95333 176.947 9.02C176.667 9.08667 176.347 9.12 175.987 9.12C175.534 9.12 175.141 9.05333 174.807 8.92C174.481 8.78 174.211 8.59 173.997 8.35C173.784 8.11 173.624 7.82667 173.517 7.5C173.417 7.16667 173.367 6.80333 173.367 6.41ZM176.937 5.9C176.944 5.48 176.837 5.13667 176.617 4.87C176.404 4.59667 176.107 4.46 175.727 4.46C175.514 4.46 175.324 4.50333 175.157 4.59C174.997 4.67 174.861 4.77667 174.747 4.91C174.634 5.04333 174.544 5.19667 174.477 5.37C174.417 5.54333 174.377 5.72 174.357 5.9H176.937ZM182.603 4.9C182.49 4.80667 182.327 4.71667 182.113 4.63C181.9 4.54333 181.667 4.5 181.413 4.5C181.147 4.5 180.917 4.55 180.723 4.65C180.537 4.74333 180.383 4.87667 180.263 5.05C180.143 5.21667 180.057 5.41667 180.003 5.65C179.95 5.88333 179.923 6.13333 179.923 6.4C179.923 7.00667 180.073 7.47667 180.373 7.81C180.673 8.13667 181.073 8.3 181.573 8.3C181.827 8.3 182.037 8.29 182.203 8.27C182.377 8.24333 182.51 8.21667 182.603 8.19V4.9ZM182.603 1.4L183.533 1.24V8.85C183.32 8.91 183.047 8.97 182.713 9.03C182.38 9.09 181.997 9.12 181.563 9.12C181.163 9.12 180.803 9.05667 180.483 8.93C180.163 8.80333 179.89 8.62333 179.663 8.39C179.437 8.15667 179.26 7.87333 179.133 7.54C179.013 7.2 178.953 6.82 178.953 6.4C178.953 6 179.003 5.63333 179.103 5.3C179.21 4.96667 179.363 4.68 179.563 4.44C179.763 4.2 180.007 4.01333 180.293 3.88C180.587 3.74667 180.92 3.68 181.293 3.68C181.593 3.68 181.857 3.72 182.083 3.8C182.317 3.88 182.49 3.95667 182.603 4.03V1.4ZM188.376 4.03C188.49 3.95667 188.66 3.88 188.886 3.8C189.12 3.72 189.386 3.68 189.686 3.68C190.06 3.68 190.39 3.74667 190.676 3.88C190.97 4.01333 191.216 4.2 191.416 4.44C191.616 4.68 191.766 4.96667 191.866 5.3C191.973 5.63333 192.026 6 192.026 6.4C192.026 6.82 191.963 7.2 191.836 7.54C191.716 7.87333 191.543 8.15667 191.316 8.39C191.09 8.62333 190.816 8.80333 190.496 8.93C190.176 9.05667 189.816 9.12 189.416 9.12C188.983 9.12 188.6 9.09 188.266 9.03C187.933 8.97 187.66 8.91 187.446 8.85V1.4L188.376 1.24V4.03ZM188.376 8.19C188.47 8.21667 188.6 8.24333 188.766 8.27C188.94 8.29 189.153 8.3 189.406 8.3C189.906 8.3 190.306 8.13667 190.606 7.81C190.906 7.47667 191.056 7.00667 191.056 6.4C191.056 6.13333 191.03 5.88333 190.976 5.65C190.923 5.41667 190.836 5.21667 190.716 5.05C190.596 4.87667 190.44 4.74333 190.246 4.65C190.06 4.55 189.833 4.5 189.566 4.5C189.313 4.5 189.08 4.54333 188.866 4.63C188.653 4.71667 188.49 4.80667 188.376 4.9V8.19ZM192.598 9.97C192.672 10.0033 192.765 10.0333 192.878 10.06C192.998 10.0933 193.115 10.11 193.228 10.11C193.595 10.11 193.882 10.0267 194.088 9.86C194.295 9.7 194.482 9.43667 194.648 9.07C194.228 8.27 193.835 7.42333 193.468 6.53C193.108 5.63 192.808 4.72 192.568 3.8H193.568C193.642 4.1 193.728 4.42333 193.828 4.77C193.935 5.11667 194.052 5.47333 194.178 5.84C194.305 6.20667 194.442 6.57333 194.588 6.94C194.735 7.30667 194.888 7.66 195.048 8C195.302 7.3 195.522 6.60667 195.708 5.92C195.895 5.23333 196.072 4.52667 196.238 3.8H197.198C196.958 4.78 196.692 5.72333 196.398 6.63C196.105 7.53 195.788 8.37333 195.448 9.16C195.315 9.46 195.175 9.71667 195.028 9.93C194.888 10.15 194.732 10.33 194.558 10.47C194.385 10.61 194.188 10.7133 193.968 10.78C193.755 10.8467 193.512 10.88 193.238 10.88C193.165 10.88 193.088 10.8733 193.008 10.86C192.928 10.8533 192.848 10.84 192.768 10.82C192.695 10.8067 192.625 10.79 192.558 10.77C192.498 10.75 192.455 10.7333 192.428 10.72L192.598 9.97Z" fill="white"/>
</svg>
